<svg xmlns="http://www.w3.org/2000/svg" viewBox="0 0 1200 630" width="1200" height="630">
  <defs>
    <radialGradient id="bg" cx="80%" cy="20%" r="80%">
      <stop offset="0%" stop-color="#d8c9e0"/>
      <stop offset="60%" stop-color="#ede6f2"/>
      <stop offset="100%" stop-color="#faf7f5"/>
    </radialGradient>
    <linearGradient id="line" x1="0" x2="1" y1="0" y2="0">
      <stop offset="0%" stop-color="#6b2d8c" stop-opacity="0"/>
      <stop offset="50%" stop-color="#6b2d8c" stop-opacity="0.6"/>
      <stop offset="100%" stop-color="#6b2d8c" stop-opacity="0"/>
    </linearGradient>
  </defs>

  <rect width="1200" height="630" fill="url(#bg)"/>

  <!-- Decorative butterfly outlines -->
  <g fill="none" stroke="#b8a2c8" stroke-width="1.4" opacity="0.55">
    <g transform="translate(140 130) scale(1.6)">
      <path d="M50 48 Q42 22, 22 20 Q10 28, 14 44 Q18 52, 32 52 Q46 52, 50 48 Z"/>
      <path d="M50 48 Q58 22, 78 20 Q90 28, 86 44 Q82 52, 68 52 Q54 52, 50 48 Z"/>
      <path d="M50 52 Q44 68, 28 72 Q18 70, 20 60 Q26 54, 38 54 Q46 54, 50 52 Z"/>
      <path d="M50 52 Q56 68, 72 72 Q82 70, 80 60 Q74 54, 62 54 Q54 54, 50 52 Z"/>
      <ellipse cx="50" cy="50" rx="1.5" ry="14" fill="#b8a2c8"/>
    </g>
    <g transform="translate(960 380) scale(2.2) rotate(15)">
      <path d="M50 48 Q42 22, 22 20 Q10 28, 14 44 Q18 52, 32 52 Q46 52, 50 48 Z"/>
      <path d="M50 48 Q58 22, 78 20 Q90 28, 86 44 Q82 52, 68 52 Q54 52, 50 48 Z"/>
      <path d="M50 52 Q44 68, 28 72 Q18 70, 20 60 Q26 54, 38 54 Q46 54, 50 52 Z"/>
      <path d="M50 52 Q56 68, 72 72 Q82 70, 80 60 Q74 54, 62 54 Q54 54, 50 52 Z"/>
      <ellipse cx="50" cy="50" rx="1.5" ry="14" fill="#b8a2c8"/>
    </g>
  </g>

  <!-- Wordmark -->
  <g transform="translate(600 290)" text-anchor="middle">
    <text font-family="Dancing Script, cursive" font-size="44" fill="#6b2d8c" y="-110">soul healing</text>

    <text font-family="Fraunces, Georgia, serif" font-size="160" font-weight="500" y="0">
      <tspan fill="#4a1d6b">I</tspan><tspan fill="#6b2d8c">B</tspan><tspan fill="#b8a2c8" font-weight="400">ienestar</tspan>
    </text>

    <line x1="-180" x2="180" y1="60" y2="60" stroke="url(#line)" stroke-width="1.5"/>

    <text font-family="Fraunces, Georgia, serif" font-style="italic" font-size="32" fill="#5a4a68" y="120">
      Un camino de sanación para el alma
    </text>

    <text font-family="Jost, sans-serif" font-size="18" letter-spacing="4" fill="#5a4a68" y="190">
      IVANA BUDI · BENAVIDEZ · ZONA NORTE
    </text>
  </g>
</svg>
